<svg id="TEXT" xmlns="http://www.w3.org/2000/svg" width="540" height="230.594" viewBox="0 0 540 230.594">
  <defs>
    <style>
      .cls-1, .cls-2 {
        fill-rule: evenodd;
      }

      .cls-2 {
        fill: #fdd31b;
      }
    </style>
  </defs>
  <path id="GOOD_Morning" data-name="GOOD Morning" class="cls-1" d="M1791.46,787.608h-19.87v10.584h7.34v11.232c0,5.4-2.8,6.912-6.91,6.912s-6.91-1.512-6.91-6.912V767.951c0-5.4,2.81-6.912,6.91-6.912s6.91,1.512,6.91,6.912v8.856h12.53v-10.8c0-11.232-7.56-15.984-19.01-15.984h-0.86c-11.45,0-19.01,4.752-19.01,15.984v45.361c0,11.772,7.56,15.984,19.01,15.984h0.86c11.45,0,19.01-4.32,19.01-15.984v-23.76Zm9.72-21.6v45.361c0,11.448,7.56,15.984,19.01,15.984h0.86c11.45,0,19.01-4.536,19.01-15.984V766.007c0-11.448-7.56-15.984-19.01-15.984h-0.86C1808.74,750.023,1801.18,754.451,1801.18,766.007Zm12.53,43.417V767.951c0-5.4,2.81-6.912,6.91-6.912s6.91,1.512,6.91,6.912v41.473c0,5.4-2.8,6.912-6.91,6.912S1813.71,814.824,1813.71,809.424ZM1850,766.007v45.361c0,11.448,7.56,15.984,19,15.984h0.87c11.45,0,19.01-4.536,19.01-15.984V766.007c0-11.448-7.56-15.984-19.01-15.984H1869C1857.56,750.023,1850,754.451,1850,766.007Zm12.52,43.417V767.951c0-5.4,2.81-6.912,6.92-6.912s6.91,1.512,6.91,6.912v41.473c0,5.4-2.81,6.912-6.91,6.912S1862.52,814.824,1862.52,809.424Zm56.06-58.537h-19.34v75.6h19.34c11.44,0,19-4.536,19-15.984V766.871C1937.58,755.423,1930.02,750.887,1918.58,750.887Zm6.48,17.928V808.56c0,5.4-2.81,6.912-6.92,6.912h-6.37V761.9h6.37C1922.25,761.9,1925.06,763.415,1925.06,768.815Zm81.53,11.449v46.224h12.1v-75.6h-12.31l-14.69,43.957-14.58-43.957h-11.88v75.6h11.66V780.264l11.34,35.208h7.02Zm22.47-14.257v45.361c0,11.448,7.56,15.984,19,15.984h0.87c11.45,0,19.01-4.536,19.01-15.984V766.007c0-11.448-7.56-15.984-19.01-15.984h-0.87C2036.62,750.023,2029.06,754.451,2029.06,766.007Zm12.52,43.417V767.951c0-5.4,2.81-6.912,6.92-6.912s6.91,1.512,6.91,6.912v41.473c0,5.4-2.81,6.912-6.91,6.912S2041.58,814.824,2041.58,809.424Zm77.87,17.064-10.8-32.076c5.19-2.268,8.21-6.8,8.21-14.04v-13.5c0-11.448-7.56-15.984-19.01-15.984H2078.3v75.6h12.53V796.356h6.27l9.61,30.132h12.74ZM2090.83,761.9h6.59c4.1,0,6.91,1.512,6.91,6.912v9.829c0,5.4-2.81,6.912-6.91,6.912h-6.59V761.9Zm47.63,64.585v-49.14l16.52,49.14h11.88v-75.6h-11.45v46.765l-15.87-46.765h-12.53v75.6h11.45Zm52.16,0v-75.6h-12.53v75.6h12.53Zm22.68,0v-49.14l16.53,49.14h11.88v-75.6h-11.45v46.765l-15.88-46.765h-12.53v75.6h11.45Zm77.65-38.88h-19.87v10.584h7.35v11.232c0,5.4-2.81,6.912-6.92,6.912s-6.91-1.512-6.91-6.912V767.951c0-5.4,2.81-6.912,6.91-6.912s6.92,1.512,6.92,6.912v8.856h12.52v-10.8c0-11.232-7.56-15.984-19-15.984h-0.87c-11.45,0-19.01,4.752-19.01,15.984v45.361c0,11.772,7.56,15.984,19.01,15.984h0.87c11.44,0,19-4.32,19-15.984v-23.76Z" transform="translate(-1752 -750.031)"/>
  <path class="cls-2" d="M1752,858.829h540v66H1752v-66Z" transform="translate(-1752 -750.031)"/>
  <path id="Seed_You_Soon" data-name="Seed You Soon" class="cls-1" d="M1812.67,874.039a17,17,0,0,0-7.17-1.53,14.694,14.694,0,0,0-9,2.55,8.018,8.018,0,0,0-3.42,6.75,8.139,8.139,0,0,0,.57,3.15,8.041,8.041,0,0,0,1.74,2.61,11.048,11.048,0,0,0,3.27,2.19,52.869,52.869,0,0,0,6.27,2.31,55.967,55.967,0,0,1,6.48,2.4,10.6,10.6,0,0,1,3.78,2.91,7.1,7.1,0,0,1,1.47,4.59,7.314,7.314,0,0,1-3,6.09c-2.01,1.541-4.72,2.31-8.16,2.31a16.2,16.2,0,0,1-6.9-1.47,14.74,14.74,0,0,1-5.34-4.11l-1.44,1.32a15.163,15.163,0,0,0,5.76,4.41,18.927,18.927,0,0,0,7.98,1.65q6.06,0,9.54-2.82a10.159,10.159,0,0,0,2.91-11.01,8.437,8.437,0,0,0-1.56-2.64,13.029,13.029,0,0,0-2.85-2.25,42.865,42.865,0,0,0-7.77-3.03q-5.91-1.89-7.71-3.18a7.357,7.357,0,0,1-2.46-2.67,6.454,6.454,0,0,1-.66-2.88,6.227,6.227,0,0,1,2.91-5.34,12.955,12.955,0,0,1,7.59-2.04,14.388,14.388,0,0,1,6.18,1.38,11,11,0,0,1,4.32,3.3l1.5-1.32A11.843,11.843,0,0,0,1812.67,874.039Zm39.93,37.53v-1.8H1831v-16.5h19.2v-1.8H1831v-16.56h21.6v-1.8h-23.52v38.46h23.52Zm33.72,0v-1.8h-21.6v-16.5h19.2v-1.8h-19.2v-16.56h21.6v-1.8H1862.8v38.46h23.52Zm21.24,0a24.463,24.463,0,0,0,8.34-1.38,19.223,19.223,0,0,0,6.57-3.9,17.024,17.024,0,0,0,4.2-6.12,20.431,20.431,0,0,0,1.47-7.8,19.737,19.737,0,0,0-1.53-7.8,16.693,16.693,0,0,0-4.41-6.12,20.513,20.513,0,0,0-6.9-3.9,26.888,26.888,0,0,0-8.76-1.38h-10.02v38.4h11.04Zm7.2-35.37a17.537,17.537,0,0,1,6.15,3.54,15.817,15.817,0,0,1,3.93,5.55,18.852,18.852,0,0,1,0,14.16,15.8,15.8,0,0,1-3.93,5.55,17.476,17.476,0,0,1-6.15,3.54,24.142,24.142,0,0,1-7.86,1.23h-8.46v-34.8h8.46A24.2,24.2,0,0,1,1914.76,876.2Zm50.58,35.37v-13.26l14.58-25.2h-2.16l-13.38,23.16-13.32-23.16h-2.22l14.58,25.2v13.26h1.92Zm30.36-37.5a19.306,19.306,0,0,0-6.21,4.32,20.325,20.325,0,0,0-5.67,14.04,20.036,20.036,0,0,0,5.67,13.95,19.092,19.092,0,0,0,6.21,4.26,18.854,18.854,0,0,0,14.88,0,19.307,19.307,0,0,0,6.21-4.26,20.031,20.031,0,0,0,4.17-21.57,20.29,20.29,0,0,0-4.17-6.42,19.525,19.525,0,0,0-6.21-4.32A18.522,18.522,0,0,0,1995.7,874.069Zm0.75,34.89a17.56,17.56,0,0,1-5.61-3.87,17.794,17.794,0,0,1-3.75-5.76,18.047,18.047,0,0,1-1.35-6.9,18.433,18.433,0,0,1,1.35-6.99,18.094,18.094,0,0,1,3.75-5.82,17.392,17.392,0,0,1,5.61-3.9,16.576,16.576,0,0,1,13.38,0,17.611,17.611,0,0,1,5.61,3.9,18.512,18.512,0,0,1,5.1,12.81,18.221,18.221,0,0,1-5.1,12.66,17.783,17.783,0,0,1-5.61,3.87A16.576,16.576,0,0,1,1996.45,908.959Zm37.8-5.37a13.021,13.021,0,0,0,2.82,4.62,12.125,12.125,0,0,0,4.44,2.94,16.269,16.269,0,0,0,11.34,0,12.413,12.413,0,0,0,4.47-2.94,13.084,13.084,0,0,0,2.85-4.62,16.952,16.952,0,0,0,.99-5.88v-24.6h-1.92v24.78a12.454,12.454,0,0,1-3.33,9.03,12.732,12.732,0,0,1-17.43,0,12.519,12.519,0,0,1-3.3-9.03v-24.78h-1.92v24.6A16.952,16.952,0,0,0,2034.25,903.589Zm72.6-29.55a17,17,0,0,0-7.17-1.53,14.694,14.694,0,0,0-9,2.55,8.018,8.018,0,0,0-3.42,6.75,8.139,8.139,0,0,0,.57,3.15,8.041,8.041,0,0,0,1.74,2.61,11.048,11.048,0,0,0,3.27,2.19,52.869,52.869,0,0,0,6.27,2.31,55.967,55.967,0,0,1,6.48,2.4,10.6,10.6,0,0,1,3.78,2.91,7.1,7.1,0,0,1,1.47,4.59,7.314,7.314,0,0,1-3,6.09c-2.01,1.541-4.72,2.31-8.16,2.31a16.2,16.2,0,0,1-6.9-1.47,14.74,14.74,0,0,1-5.34-4.11l-1.44,1.32a15.163,15.163,0,0,0,5.76,4.41,18.927,18.927,0,0,0,7.98,1.65q6.06,0,9.54-2.82a10.159,10.159,0,0,0,2.91-11.01,8.437,8.437,0,0,0-1.56-2.64,13.029,13.029,0,0,0-2.85-2.25,42.865,42.865,0,0,0-7.77-3.03q-5.91-1.89-7.71-3.18a7.357,7.357,0,0,1-2.46-2.67,6.454,6.454,0,0,1-.66-2.88,6.227,6.227,0,0,1,2.91-5.34,12.955,12.955,0,0,1,7.59-2.04,14.388,14.388,0,0,1,6.18,1.38,11,11,0,0,1,4.32,3.3l1.5-1.32A11.843,11.843,0,0,0,2106.85,874.039Zm25.89,0.03a19.306,19.306,0,0,0-6.21,4.32,20.325,20.325,0,0,0-5.67,14.04,20.036,20.036,0,0,0,5.67,13.95,19.092,19.092,0,0,0,6.21,4.26,18.854,18.854,0,0,0,14.88,0,19.307,19.307,0,0,0,6.21-4.26,20.031,20.031,0,0,0,4.17-21.57,20.29,20.29,0,0,0-4.17-6.42,19.525,19.525,0,0,0-6.21-4.32A18.522,18.522,0,0,0,2132.74,874.069Zm0.75,34.89a17.56,17.56,0,0,1-5.61-3.87,17.794,17.794,0,0,1-3.75-5.76,18.047,18.047,0,0,1-1.35-6.9,18.433,18.433,0,0,1,1.35-6.99,18.094,18.094,0,0,1,3.75-5.82,17.392,17.392,0,0,1,5.61-3.9,16.576,16.576,0,0,1,13.38,0,17.611,17.611,0,0,1,5.61,3.9,18.512,18.512,0,0,1,5.1,12.81,18.221,18.221,0,0,1-5.1,12.66,17.783,17.783,0,0,1-5.61,3.87A16.576,16.576,0,0,1,2133.49,908.959Zm46.89-34.89a19.306,19.306,0,0,0-6.21,4.32,20.325,20.325,0,0,0-5.67,14.04,20.036,20.036,0,0,0,5.67,13.95,19.092,19.092,0,0,0,6.21,4.26,18.854,18.854,0,0,0,14.88,0,19.307,19.307,0,0,0,6.21-4.26,20.031,20.031,0,0,0,4.17-21.57,20.29,20.29,0,0,0-4.17-6.42,19.525,19.525,0,0,0-6.21-4.32A18.522,18.522,0,0,0,2180.38,874.069Zm0.75,34.89a17.56,17.56,0,0,1-5.61-3.87,17.794,17.794,0,0,1-3.75-5.76,18.047,18.047,0,0,1-1.35-6.9,18.433,18.433,0,0,1,1.35-6.99,18.094,18.094,0,0,1,3.75-5.82,17.392,17.392,0,0,1,5.61-3.9,16.576,16.576,0,0,1,13.38,0,17.611,17.611,0,0,1,5.61,3.9,18.512,18.512,0,0,1,5.1,12.81,18.221,18.221,0,0,1-5.1,12.66,17.783,17.783,0,0,1-5.61,3.87A16.576,16.576,0,0,1,2181.13,908.959Zm68.13,2.61v-38.46h-1.92v35.64l-26.94-35.64h-2.16v38.46h1.92v-35.64l26.94,35.64h2.16Z" transform="translate(-1752 -750.031)"/>
  <path id="Our_Teaser_site_is_coming_soon._Stay_Tuned_" data-name="Our Teaser site is coming soon. Stay Tuned!" class="cls-1" d="M1761.5,976.8c5.21,0,8.79-3.39,8.79-9.609v-0.617c0-6.415-3.5-9.609-8.63-9.609-5.23,0-8.79,3.418-8.79,9.609v0.617C1752.87,973.548,1756.31,976.8,1761.5,976.8Zm0.11-2.662c-3.67,0-5.07-2.633-5.07-6.975V966.18c0-3.894,1.62-6.527,4.96-6.527,3.72,0.028,5.12,2.633,5.12,6.947v0.953C1766.62,971.475,1764.97,974.136,1761.61,974.136Zm16.15,2.606a7.347,7.347,0,0,0,4.43-1.513h0.14l0.28,1.261h2.8V962.062h-3.22v11.206a7.62,7.62,0,0,1-3.22.868c-1.8,0-2.36-.644-2.36-2.213v-9.861h-3.22V972.54C1773.39,975.369,1774.96,976.742,1777.76,976.742Zm11.42-.252h3.23V965.76a6.714,6.714,0,0,1,3.5-.953,8.546,8.546,0,0,1,1.17.084v-2.857a3.237,3.237,0,0,0-.89-0.084,4.881,4.881,0,0,0-3.78,1.793h-0.12v-1.681h-3.11V976.49Zm22.29,0h3.45v-16.5h5.46v-2.718h-14.42v2.718h5.51v16.5Zm17.95,0.252a9.225,9.225,0,0,0,5.1-1.345v-2.241a9.24,9.24,0,0,1-4.45,1.064c-2.75,0-4.29-1.064-4.48-4.062H1835v-1.345c0-4.594-1.85-6.975-6.11-6.975-3.67,0-6.61,2.381-6.61,7.228v0.392C1822.28,974.024,1824.63,976.742,1829.42,976.742Zm-0.58-12.523c1.87,0,2.88,1.009,2.88,3.726h-6.13C1825.81,965,1827.35,964.219,1828.84,964.219Zm12.73,12.523a4.632,4.632,0,0,0,3.73-1.429h0.17l0.25,1.177h2.66V966.124c0-3-1.93-4.286-5.27-4.286a12.788,12.788,0,0,0-4.76.784v2.213a16.153,16.153,0,0,1,3.5-.392c2.44,0,3.31.448,3.31,2.409v1.093l-3.39.392c-2.86.42-4.62,1.653-4.62,4.315C1837.15,975.425,1838.97,976.742,1841.57,976.742Zm0.98-2.269c-1.31,0-2.24-.617-2.24-1.99,0-1.456.76-2.045,2.19-2.157l2.66-.28V973.6A4.036,4.036,0,0,1,1842.55,974.473Zm13.53,2.241c3.53,0,5.52-1.485,5.52-4.483,0-2.493-1.1-3.614-3.93-4.258l-1.37-.308c-1.37-.336-1.93-0.7-1.93-1.709,0-1.121.9-1.681,2.58-1.681a10.025,10.025,0,0,1,3.86.784v-2.437a9.711,9.711,0,0,0-4.14-.784c-3.65,0-5.35,1.709-5.35,4.37,0,2.577,1.45,3.7,3.67,4.146l1.34,0.308c1.57,0.337,2.13.841,2.13,1.878,0,1.064-.84,1.736-2.86,1.736a10.03,10.03,0,0,1-4.28-.9v2.353A10.315,10.315,0,0,0,1856.08,976.714Zm14.84,0.028a9.225,9.225,0,0,0,5.1-1.345v-2.241a9.281,9.281,0,0,1-4.46,1.064c-2.74,0-4.28-1.064-4.48-4.062h9.41v-1.345c0-4.594-1.84-6.975-6.1-6.975-3.67,0-6.61,2.381-6.61,7.228v0.392C1863.78,974.024,1866.13,976.742,1870.92,976.742Zm-0.59-12.523c1.88,0,2.89,1.009,2.89,3.726h-6.14C1867.31,965,1868.85,964.219,1870.33,964.219Zm9.13,12.271h3.22V965.76a6.714,6.714,0,0,1,3.5-.953,8.688,8.688,0,0,1,1.18.084v-2.857a3.323,3.323,0,0,0-.9-0.084,4.9,4.9,0,0,0-3.78,1.793h-0.11v-1.681h-3.11V976.49Zm21.87,0.224c3.53,0,5.51-1.485,5.51-4.483,0-2.493-1.09-3.614-3.92-4.258l-1.37-.308c-1.37-.336-1.93-0.7-1.93-1.709,0-1.121.89-1.681,2.57-1.681a10.039,10.039,0,0,1,3.87.784v-2.437a9.729,9.729,0,0,0-4.15-.784c-3.64,0-5.35,1.709-5.35,4.37,0,2.577,1.46,3.7,3.67,4.146l1.35,0.308c1.57,0.337,2.13.841,2.13,1.878,0,1.064-.84,1.736-2.86,1.736a10.116,10.116,0,0,1-4.29-.9v2.353A10.388,10.388,0,0,0,1901.33,976.714Zm8.56-.224h3.25V962.062h-3.25V976.49Zm0-16.809h3.28v-2.942h-3.28v2.942Zm12.07,16.977a5.575,5.575,0,0,0,2.69-.589v-2.157a6.321,6.321,0,0,1-1.65.224c-1.51,0-1.96-.448-1.96-1.653v-7.9h3.44v-2.521h-3.44v-3.39h-3.17v3.39h-2.01v2.521h2.01v8.349C1917.87,975.649,1919.47,976.658,1921.96,976.658Zm11.96,0.084a9.225,9.225,0,0,0,5.1-1.345v-2.241a9.281,9.281,0,0,1-4.46,1.064c-2.74,0-4.28-1.064-4.48-4.062h9.41v-1.345c0-4.594-1.84-6.975-6.1-6.975-3.67,0-6.61,2.381-6.61,7.228v0.392C1926.78,974.024,1929.13,976.742,1933.92,976.742Zm-0.59-12.523c1.88,0,2.89,1.009,2.89,3.726h-6.14C1930.31,965,1931.85,964.219,1933.33,964.219Zm16.55,12.271h3.25V962.062h-3.25V976.49Zm0-16.809h3.27v-2.942h-3.27v2.942Zm11.09,17.033c3.53,0,5.51-1.485,5.51-4.483,0-2.493-1.09-3.614-3.92-4.258l-1.37-.308c-1.37-.336-1.93-0.7-1.93-1.709,0-1.121.89-1.681,2.57-1.681a10.039,10.039,0,0,1,3.87.784v-2.437a9.729,9.729,0,0,0-4.15-.784c-3.64,0-5.35,1.709-5.35,4.37,0,2.577,1.46,3.7,3.67,4.146l1.35,0.308c1.57,0.337,2.13.841,2.13,1.878,0,1.064-.84,1.736-2.86,1.736a10.116,10.116,0,0,1-4.29-.9v2.353A10.388,10.388,0,0,0,1960.97,976.714Zm21.95,0.028a7.708,7.708,0,0,0,4.26-1.121v-2.353a8.324,8.324,0,0,1-3.7.9c-2.75,0-4.12-1.4-4.12-4.706v-0.645c0-2.885,1.49-4.4,3.9-4.4a8.826,8.826,0,0,1,3.78.785v-2.522a7.86,7.86,0,0,0-3.98-.868c-4.01,0-7.03,2.353-7.03,7.34V969.6C1976.03,974.36,1978.66,976.742,1982.92,976.742Zm13.07,0c4.04,0,6.84-2.662,6.84-7.312v-0.392c0-4.6-2.49-7.228-6.81-7.228-4.06,0-6.86,2.689-6.86,7.312v0.448C1989.16,974.08,1991.6,976.742,1995.99,976.742Zm0.06-2.438c-2.02,0-3.58-1.008-3.58-4.734V968.9c0-3.11,1.28-4.651,3.5-4.651,1.96,0,3.5,1.009,3.5,4.763v0.7C1999.47,972.82,1998.21,974.3,1996.05,974.3Zm9.74,2.186h3.22V965.284a6.711,6.711,0,0,1,2.97-.785c1.63,0,2.22.588,2.22,2.017v9.974h3.16V965.956a5.711,5.711,0,0,0-.05-0.644,6.762,6.762,0,0,1,2.99-.813c1.66,0,2.22.588,2.22,2.017v9.974h3.19V965.76c0-2.858-1.43-3.95-3.98-3.95a8.521,8.521,0,0,0-4.73,1.625h-0.17a3.556,3.556,0,0,0-3.42-1.625,7.681,7.681,0,0,0-4.4,1.541h-0.11v-1.289h-3.11V976.49Zm23.69,0h3.25V962.062h-3.25V976.49Zm0-16.809h3.28v-2.942h-3.28v2.942Zm7.14,16.809h3.22V965.284a8.043,8.043,0,0,1,3.25-.785c1.96,0,2.44.588,2.44,2.045v9.946h3.25v-10.7c0-2.858-1.43-3.978-4.2-3.978a8.375,8.375,0,0,0-4.74,1.541h-0.11v-1.289h-3.11V976.49Zm21.17,4.09c5.07,0,7.26-1.989,7.26-4.679,0-2.661-1.94-3.642-4.68-3.642h-3.98c-0.9,0-1.29-.252-1.29-0.952a0.909,0.909,0,0,1,.53-0.729,7.326,7.326,0,0,0,2.27.281c3.25,0,5.66-1.345,5.66-4.427v-0.2a2.834,2.834,0,0,0-.73-2.045h2.22v-2.129h-4.88a11.414,11.414,0,0,0-2.24-.224c-3.42,0-5.77,1.513-5.77,4.482v0.252a3.782,3.782,0,0,0,1.82,3.39c-1.04.672-1.68,1.261-1.68,2.241a2.209,2.209,0,0,0,1.51,2.1v0.113c-1.51.448-2.69,1.344-2.69,2.829C2051.12,979.291,2053.28,980.58,2057.79,980.58Zm-0.06-2.185c-2.49,0-3.41-.561-3.41-1.625a1.822,1.822,0,0,1,1.48-1.793h3.7c1.74,0,2.24.336,2.24,1.457C2061.74,977.638,2060.73,978.4,2057.73,978.4Zm0.17-9.61c-1.59,0-2.57-.616-2.57-2.3v-0.336c0-1.513.92-2.269,2.57-2.269,1.57,0,2.55.616,2.55,2.325v0.364C2060.45,968.169,2059.56,968.785,2057.9,968.785Zm20.95,7.929c3.53,0,5.51-1.485,5.51-4.483,0-2.493-1.09-3.614-3.92-4.258l-1.37-.308c-1.37-.336-1.93-0.7-1.93-1.709,0-1.121.89-1.681,2.57-1.681a10.039,10.039,0,0,1,3.87.784v-2.437a9.729,9.729,0,0,0-4.15-.784c-3.64,0-5.35,1.709-5.35,4.37,0,2.577,1.46,3.7,3.67,4.146l1.35,0.308c1.57,0.337,2.13.841,2.13,1.878,0,1.064-.84,1.736-2.86,1.736a10.116,10.116,0,0,1-4.29-.9v2.353A10.388,10.388,0,0,0,2078.85,976.714Zm14.53,0.028c4.03,0,6.83-2.662,6.83-7.312v-0.392c0-4.6-2.49-7.228-6.8-7.228-4.07,0-6.87,2.689-6.87,7.312v0.448C2086.54,974.08,2088.98,976.742,2093.38,976.742Zm0.05-2.438c-2.01,0-3.58-1.008-3.58-4.734V968.9c0-3.11,1.29-4.651,3.5-4.651,1.96,0,3.5,1.009,3.5,4.763v0.7C2096.85,972.82,2095.59,974.3,2093.43,974.3Zm15.77,2.438c4.03,0,6.83-2.662,6.83-7.312v-0.392c0-4.6-2.49-7.228-6.8-7.228-4.07,0-6.87,2.689-6.87,7.312v0.448C2102.36,974.08,2104.8,976.742,2109.2,976.742Zm0.05-2.438c-2.01,0-3.58-1.008-3.58-4.734V968.9c0-3.11,1.29-4.651,3.5-4.651,1.96,0,3.5,1.009,3.5,4.763v0.7C2112.67,972.82,2111.41,974.3,2109.25,974.3Zm9.75,2.186h3.22V965.284a8.043,8.043,0,0,1,3.25-.785c1.96,0,2.43.588,2.43,2.045v9.946h3.25v-10.7c0-2.858-1.42-3.978-4.2-3.978a8.343,8.343,0,0,0-4.73,1.541h-0.11v-1.289H2119V976.49Zm15.79,0.448h3.42V973.66h-3.42v3.278Zm19.4-.112c4.65,0,6.87-2.269,6.87-5.911,0-3.418-1.82-4.679-4.85-5.547l-1.79-.561c-1.91-.532-2.47-1.176-2.47-2.689,0-1.541,1.12-2.381,3.14-2.381a12.3,12.3,0,0,1,4.9.952V958a9.855,9.855,0,0,0-4.96-1.037c-4.34,0-6.44,2.213-6.44,5.463s1.65,4.707,4.37,5.463l1.82,0.5c2.1,0.645,2.8,1.261,2.8,2.858,0,1.737-1.09,2.8-3.67,2.8a13.526,13.526,0,0,1-5.46-1.176v2.717A12.228,12.228,0,0,0,2154.19,976.826Zm14.9-.168a5.607,5.607,0,0,0,2.69-.589v-2.157a6.321,6.321,0,0,1-1.65.224c-1.52,0-1.96-.448-1.96-1.653v-7.9h3.44v-2.521h-3.44v-3.39H2165v3.39h-2.02v2.521H2165v8.349C2165,975.649,2166.6,976.658,2169.09,976.658Zm9.24,0.084a4.632,4.632,0,0,0,3.73-1.429h0.16l0.26,1.177h2.66V966.124c0-3-1.94-4.286-5.27-4.286a12.716,12.716,0,0,0-4.76.784v2.213a16.153,16.153,0,0,1,3.5-.392c2.44,0,3.31.448,3.31,2.409v1.093l-3.39.392c-2.86.42-4.63,1.653-4.63,4.315C2173.9,975.425,2175.72,976.742,2178.33,976.742Zm0.98-2.269c-1.32,0-2.24-.617-2.24-1.99,0-1.456.76-2.045,2.18-2.157l2.67-.28V973.6A4.057,4.057,0,0,1,2179.31,974.473Zm11.23,6.163c2.66,0,4.06-1.009,5.01-3.754l5.58-14.82h-3.11l-3.37,9.357h-0.11l-3.64-9.357h-3.42l5.44,13.363-0.39,1.009a2.431,2.431,0,0,1-2.69,1.709,6.607,6.607,0,0,1-1.4-.141v2.158A4.558,4.558,0,0,0,2190.54,980.636Zm24.75-4.146h3.45v-16.5h5.46v-2.718h-14.43v2.718h5.52v16.5Zm14.28,0.252a7.347,7.347,0,0,0,4.43-1.513h0.14l0.28,1.261h2.8V962.062H2234v11.206a7.625,7.625,0,0,1-3.23.868c-1.79,0-2.35-.644-2.35-2.213v-9.861h-3.22V972.54C2225.2,975.369,2226.77,976.742,2229.57,976.742Zm11.42-.252h3.22V965.284a8.043,8.043,0,0,1,3.25-.785c1.96,0,2.44.588,2.44,2.045v9.946h3.25v-10.7c0-2.858-1.43-3.978-4.2-3.978a8.4,8.4,0,0,0-4.74,1.541h-0.11v-1.289h-3.11V976.49Zm22.21,0.252a9.225,9.225,0,0,0,5.1-1.345v-2.241a9.281,9.281,0,0,1-4.46,1.064c-2.74,0-4.28-1.064-4.48-4.062h9.41v-1.345c0-4.594-1.85-6.975-6.1-6.975-3.67,0-6.61,2.381-6.61,7.228v0.392C2256.06,974.024,2258.41,976.742,2263.2,976.742Zm-0.59-12.523c1.88,0,2.89,1.009,2.89,3.726h-6.14C2259.58,965,2261.13,964.219,2262.61,964.219Zm14.25,12.523a5.778,5.778,0,0,0,4.09-1.4h0.11l0.28,1.149h2.75V956.011h-3.19v6.611a7.04,7.04,0,0,0-3.45-.812c-3.75,0-6.44,2.241-6.44,7.536v0.364C2271.01,974.921,2274,976.742,2276.86,976.742Zm1.12-2.494c-2.18,0-3.67-1.092-3.67-4.678v-0.532c0-3.558,1.4-4.735,3.64-4.735a5.207,5.207,0,0,1,2.95.756v8.209A4.886,4.886,0,0,1,2277.98,974.248Zm10.53-3.333h2.8l0.39-14.372h-3.64Zm-0.28,5.967h3.36V973.6h-3.36v3.278Z" transform="translate(-1752 -750.031)"/>
</svg>
